<svg width="60" height="63" viewBox="0 0 60 63" fill="none" xmlns="http://www.w3.org/2000/svg">
<g id="film" filter="url(#filter0_d_56_12)">
<path id="Vector" d="M52.5 5C51.837 5 51.2011 5.26339 50.7322 5.73223C50.2634 6.20107 50 6.83696 50 7.5V12.5H45V7.5C45 6.83696 44.7366 6.20107 44.2678 5.73223C43.7989 5.26339 43.163 5 42.5 5C41.837 5 41.2011 5.26339 40.7322 5.73223C40.2634 6.20107 40 6.83696 40 7.5V10H20V7.5C20 6.83696 19.7366 6.20107 19.2678 5.73223C18.7989 5.26339 18.163 5 17.5 5C16.837 5 16.2011 5.26339 15.7322 5.73223C15.2634 6.20107 15 6.83696 15 7.5V12.5H10V7.5C10 6.83696 9.73661 6.20107 9.26777 5.73223C8.79893 5.26339 8.16304 5 7.5 5C6.83696 5 6.20107 5.26339 5.73223 5.73223C5.26339 6.20107 5 6.83696 5 7.5V52.5C5 53.163 5.26339 53.7989 5.73223 54.2678C6.20107 54.7366 6.83696 55 7.5 55C8.16304 55 8.79893 54.7366 9.26777 54.2678C9.73661 53.7989 10 53.163 10 52.5V47.5H15V52.5C15 53.163 15.2634 53.7989 15.7322 54.2678C16.2011 54.7366 16.837 55 17.5 55C18.163 55 18.7989 54.7366 19.2678 54.2678C19.7366 53.7989 20 53.163 20 52.5V50H40V52.5C40 53.163 40.2634 53.7989 40.7322 54.2678C41.2011 54.7366 41.837 55 42.5 55C43.163 55 43.7989 54.7366 44.2678 54.2678C44.7366 53.7989 45 53.163 45 52.5V47.5H50V52.5C50 53.163 50.2634 53.7989 50.7322 54.2678C51.2011 54.7366 51.837 55 52.5 55C53.163 55 53.7989 54.7366 54.2678 54.2678C54.7366 53.7989 55 53.163 55 52.5V7.5C55 6.83696 54.7366 6.20107 54.2678 5.73223C53.7989 5.26339 53.163 5 52.5 5ZM15 42.5H10V37.5H15V42.5ZM15 32.5H10V27.5H15V32.5ZM15 22.5H10V17.5H15V22.5ZM40 45H20V32.5H40V45ZM40 27.5H20V15H40V27.5ZM50 42.5H45V37.5H50V42.5ZM50 32.5H45V27.5H50V32.5ZM50 22.5H45V17.5H50V22.5Z" fill="white"/>
</g>
<defs>
<filter id="filter0_d_56_12" x="-4" y="0" width="68" height="68" filterUnits="userSpaceOnUse" color-interpolation-filters="sRGB">
<feFlood flood-opacity="0" result="BackgroundImageFix"/>
<feColorMatrix in="SourceAlpha" type="matrix" values="0 0 0 0 0 0 0 0 0 0 0 0 0 0 0 0 0 0 127 0" result="hardAlpha"/>
<feOffset dy="4"/>
<feGaussianBlur stdDeviation="2"/>
<feComposite in2="hardAlpha" operator="out"/>
<feColorMatrix type="matrix" values="0 0 0 0 0 0 0 0 0 0 0 0 0 0 0 0 0 0 0.25 0"/>
<feBlend mode="normal" in2="BackgroundImageFix" result="effect1_dropShadow_56_12"/>
<feBlend mode="normal" in="SourceGraphic" in2="effect1_dropShadow_56_12" result="shape"/>
</filter>
</defs>
</svg>
