<svg xmlns="http://www.w3.org/2000/svg" width="192" height="193" viewBox="0 0 192 193" fill="none">
  <rect width="192" height="192" transform="translate(0 0.5)" fill="white"/>
  <path d="M9.6 54.9H3.2V61.3H9.6V54.9Z" fill="black"/>
  <path d="M9.6 61.3H3.2V67.7H9.6V61.3Z" fill="black"/>
  <path d="M9.6 74.1H3.2V80.5H9.6V74.1Z" fill="black"/>
  <path d="M9.6 80.5H3.2V86.9H9.6V80.5Z" fill="black"/>
  <path d="M9.6 86.9H3.2V93.3H9.6V86.9Z" fill="black"/>
  <path d="M9.6 93.3H3.2V99.7H9.6V93.3Z" fill="black"/>
  <path d="M9.6 99.7H3.2V106.1H9.6V99.7Z" fill="black"/>
  <path d="M9.6 112.5H3.2V118.9H9.6V112.5Z" fill="black"/>
  <path d="M9.6 118.9H3.2V125.3H9.6V118.9Z" fill="black"/>
  <path d="M16 61.3H9.6V67.7H16V61.3Z" fill="black"/>
  <path d="M16 67.7H9.6V74.1H16V67.7Z" fill="black"/>
  <path d="M16 74.1H9.6V80.5H16V74.1Z" fill="black"/>
  <path d="M16 80.5H9.6V86.9H16V80.5Z" fill="black"/>
  <path d="M16 99.7H9.6V106.1H16V99.7Z" fill="black"/>
  <path d="M16 112.5H9.6V118.9H16V112.5Z" fill="black"/>
  <path d="M16 118.9H9.6V125.3H16V118.9Z" fill="black"/>
  <path d="M16 125.3H9.6V131.7H16V125.3Z" fill="black"/>
  <path d="M22.4 54.9H16V61.3H22.4V54.9Z" fill="black"/>
  <path d="M22.4 67.7H16V74.1H22.4V67.7Z" fill="black"/>
  <path d="M22.4 99.7H16V106.1H22.4V99.7Z" fill="black"/>
  <path d="M22.4 106.1H16V112.5H22.4V106.1Z" fill="black"/>
  <path d="M22.4 112.5H16V118.9H22.4V112.5Z" fill="black"/>
  <path d="M22.4 125.3H16V131.7H22.4V125.3Z" fill="black"/>
  <path d="M22.4 131.7H16V138.1H22.4V131.7Z" fill="black"/>
  <path d="M28.8 54.9H22.4V61.3H28.8V54.9Z" fill="black"/>
  <path d="M28.8 67.7H22.4V74.1H28.8V67.7Z" fill="black"/>
  <path d="M28.8 74.1H22.4V80.5H28.8V74.1Z" fill="black"/>
  <path d="M28.8 86.9H22.4V93.3H28.8V86.9Z" fill="black"/>
  <path d="M28.8 99.7H22.4V106.1H28.8V99.7Z" fill="black"/>
  <path d="M28.8 106.1H22.4V112.5H28.8V106.1Z" fill="black"/>
  <path d="M28.8 118.9H22.4V125.3H28.8V118.9Z" fill="black"/>
  <path d="M35.2 67.7H28.8V74.1H35.2V67.7Z" fill="black"/>
  <path d="M35.2 106.1H28.8V112.5H35.2V106.1Z" fill="black"/>
  <path d="M35.2 131.7H28.8V138.1H35.2V131.7Z" fill="black"/>
  <path d="M41.6 54.9H35.2V61.3H41.6V54.9Z" fill="black"/>
  <path d="M41.6 61.3H35.2V67.7H41.6V61.3Z" fill="black"/>
  <path d="M41.6 67.7H35.2V74.1H41.6V67.7Z" fill="black"/>
  <path d="M41.6 86.9H35.2V93.3H41.6V86.9Z" fill="black"/>
  <path d="M41.6 99.7H35.2V106.1H41.6V99.7Z" fill="black"/>
  <path d="M41.6 106.1H35.2V112.5H41.6V106.1Z" fill="black"/>
  <path d="M41.6 125.3H35.2V131.7H41.6V125.3Z" fill="black"/>
  <path d="M48 54.9H41.6V61.3H48V54.9Z" fill="black"/>
  <path d="M48 67.7H41.6V74.1H48V67.7Z" fill="black"/>
  <path d="M48 80.5H41.6V86.9H48V80.5Z" fill="black"/>
  <path d="M48 93.3H41.6V99.7H48V93.3Z" fill="black"/>
  <path d="M48 106.1H41.6V112.5H48V106.1Z" fill="black"/>
  <path d="M48 118.9H41.6V125.3H48V118.9Z" fill="black"/>
  <path d="M48 131.7H41.6V138.1H48V131.7Z" fill="black"/>
  <path d="M54.4 54.9H48V61.3H54.4V54.9Z" fill="black"/>
  <path d="M54.4 80.5H48V86.9H54.4V80.5Z" fill="black"/>
  <path d="M54.4 86.9H48V93.3H54.4V86.9Z" fill="black"/>
  <path d="M54.4 93.3H48V99.7H54.4V93.3Z" fill="black"/>
  <path d="M54.4 112.5H48V118.9H54.4V112.5Z" fill="black"/>
  <path d="M54.4 118.9H48V125.3H54.4V118.9Z" fill="black"/>
  <path d="M54.4 131.7H48V138.1H54.4V131.7Z" fill="black"/>
  <path d="M60.8 10.1H54.4V16.5H60.8V10.1Z" fill="black"/>
  <path d="M60.8 22.9H54.4V29.3H60.8V22.9Z" fill="black"/>
  <path d="M60.8 35.7H54.4V42.1H60.8V35.7Z" fill="black"/>
  <path d="M60.8 42.1H54.4V48.5H60.8V42.1Z" fill="black"/>
  <path d="M60.8 48.5H54.4V54.9H60.8V48.5Z" fill="black"/>
  <path d="M60.8 54.9H54.4V61.3H60.8V54.9Z" fill="black"/>
  <path d="M60.8 61.3H54.4V67.7H60.8V61.3Z" fill="black"/>
  <path d="M60.8 67.7H54.4V74.1H60.8V67.7Z" fill="black"/>
  <path d="M60.8 74.1H54.4V80.5H60.8V74.1Z" fill="black"/>
  <path d="M60.8 80.5H54.4V86.9H60.8V80.5Z" fill="black"/>
  <path d="M60.8 86.9H54.4V93.3H60.8V86.9Z" fill="black"/>
  <path d="M60.8 112.5H54.4V118.9H60.8V112.5Z" fill="black"/>
  <path d="M60.8 118.9H54.4V125.3H60.8V118.9Z" fill="black"/>
  <path d="M60.8 138.1H54.4V144.5H60.8V138.1Z" fill="black"/>
  <path d="M60.8 144.5H54.4V150.9H60.8V144.5Z" fill="black"/>
  <path d="M60.8 150.9H54.4V157.3H60.8V150.9Z" fill="black"/>
  <path d="M60.8 163.7H54.4V170.1H60.8V163.7Z" fill="black"/>
  <path d="M60.8 170.1H54.4V176.5H60.8V170.1Z" fill="black"/>
  <path d="M60.8 182.9H54.4V189.3H60.8V182.9Z" fill="black"/>
  <path d="M67.2 3.70001H60.8V10.1H67.2V3.70001Z" fill="black"/>
  <path d="M67.2 10.1H60.8V16.5H67.2V10.1Z" fill="black"/>
  <path d="M67.2 16.5H60.8V22.9H67.2V16.5Z" fill="black"/>
  <path d="M67.2 22.9H60.8V29.3H67.2V22.9Z" fill="black"/>
  <path d="M67.2 29.3H60.8V35.7H67.2V29.3Z" fill="black"/>
  <path d="M67.2 35.7H60.8V42.1H67.2V35.7Z" fill="black"/>
  <path d="M67.2 48.5H60.8V54.9H67.2V48.5Z" fill="black"/>
  <path d="M67.2 54.9H60.8V61.3H67.2V54.9Z" fill="black"/>
  <path d="M67.2 80.5H60.8V86.9H67.2V80.5Z" fill="black"/>
  <path d="M67.2 86.9H60.8V93.3H67.2V86.9Z" fill="black"/>
  <path d="M67.2 99.7H60.8V106.1H67.2V99.7Z" fill="black"/>
  <path d="M67.2 112.5H60.8V118.9H67.2V112.5Z" fill="black"/>
  <path d="M67.2 118.9H60.8V125.3H67.2V118.9Z" fill="black"/>
  <path d="M67.2 125.3H60.8V131.7H67.2V125.3Z" fill="black"/>
  <path d="M67.2 170.1H60.8V176.5H67.2V170.1Z" fill="black"/>
  <path d="M67.2 182.9H60.8V189.3H67.2V182.9Z" fill="black"/>
  <path d="M73.6 35.7H67.2V42.1H73.6V35.7Z" fill="black"/>
  <path d="M73.6 42.1H67.2V48.5H73.6V42.1Z" fill="black"/>
  <path d="M73.6 48.5H67.2V54.9H73.6V48.5Z" fill="black"/>
  <path d="M73.6 67.7H67.2V74.1H73.6V67.7Z" fill="black"/>
  <path d="M73.6 80.5H67.2V86.9H73.6V80.5Z" fill="black"/>
  <path d="M73.6 99.7H67.2V106.1H73.6V99.7Z" fill="black"/>
  <path d="M73.6 118.9H67.2V125.3H73.6V118.9Z" fill="black"/>
  <path d="M73.6 125.3H67.2V131.7H73.6V125.3Z" fill="black"/>
  <path d="M73.6 131.7H67.2V138.1H73.6V131.7Z" fill="black"/>
  <path d="M73.6 144.5H67.2V150.9H73.6V144.5Z" fill="black"/>
  <path d="M73.6 157.3H67.2V163.7H73.6V157.3Z" fill="black"/>
  <path d="M73.6 176.5H67.2V182.9H73.6V176.5Z" fill="black"/>
  <path d="M80 16.5H73.6V22.9H80V16.5Z" fill="black"/>
  <path d="M80 22.9H73.6V29.3H80V22.9Z" fill="black"/>
  <path d="M80 48.5H73.6V54.9H80V48.5Z" fill="black"/>
  <path d="M80 61.3H73.6V67.7H80V61.3Z" fill="black"/>
  <path d="M80 67.7H73.6V74.1H80V67.7Z" fill="black"/>
  <path d="M80 80.5H73.6V86.9H80V80.5Z" fill="black"/>
  <path d="M80 93.3H73.6V99.7H80V93.3Z" fill="black"/>
  <path d="M80 99.7H73.6V106.1H80V99.7Z" fill="black"/>
  <path d="M80 106.1H73.6V112.5H80V106.1Z" fill="black"/>
  <path d="M80 118.9H73.6V125.3H80V118.9Z" fill="black"/>
  <path d="M80 125.3H73.6V131.7H80V125.3Z" fill="black"/>
  <path d="M80 138.1H73.6V144.5H80V138.1Z" fill="black"/>
  <path d="M80 144.5H73.6V150.9H80V144.5Z" fill="black"/>
  <path d="M80 150.9H73.6V157.3H80V150.9Z" fill="black"/>
  <path d="M80 170.1H73.6V176.5H80V170.1Z" fill="black"/>
  <path d="M80 176.5H73.6V182.9H80V176.5Z" fill="black"/>
  <path d="M86.4 10.1H80V16.5H86.4V10.1Z" fill="black"/>
  <path d="M86.4 16.5H80V22.9H86.4V16.5Z" fill="black"/>
  <path d="M86.4 42.1H80V48.5H86.4V42.1Z" fill="black"/>
  <path d="M86.4 54.9H80V61.3H86.4V54.9Z" fill="black"/>
  <path d="M86.4 67.7H80V74.1H86.4V67.7Z" fill="black"/>
  <path d="M86.4 93.3H80V99.7H86.4V93.3Z" fill="black"/>
  <path d="M86.4 99.7H80V106.1H86.4V99.7Z" fill="black"/>
  <path d="M86.4 112.5H80V118.9H86.4V112.5Z" fill="black"/>
  <path d="M86.4 131.7H80V138.1H86.4V131.7Z" fill="black"/>
  <path d="M86.4 144.5H80V150.9H86.4V144.5Z" fill="black"/>
  <path d="M86.4 150.9H80V157.3H86.4V150.9Z" fill="black"/>
  <path d="M86.4 163.7H80V170.1H86.4V163.7Z" fill="black"/>
  <path d="M86.4 170.1H80V176.5H86.4V170.1Z" fill="black"/>
  <path d="M92.8 16.5H86.4V22.9H92.8V16.5Z" fill="black"/>
  <path d="M92.8 22.9H86.4V29.3H92.8V22.9Z" fill="black"/>
  <path d="M92.8 29.3H86.4V35.7H92.8V29.3Z" fill="black"/>
  <path d="M92.8 61.3H86.4V67.7H92.8V61.3Z" fill="black"/>
  <path d="M92.8 67.7H86.4V74.1H92.8V67.7Z" fill="black"/>
  <path d="M92.8 74.1H86.4V80.5H92.8V74.1Z" fill="black"/>
  <path d="M92.8 80.5H86.4V86.9H92.8V80.5Z" fill="black"/>
  <path d="M92.8 86.9H86.4V93.3H92.8V86.9Z" fill="black"/>
  <path d="M92.8 93.3H86.4V99.7H92.8V93.3Z" fill="black"/>
  <path d="M92.8 99.7H86.4V106.1H92.8V99.7Z" fill="black"/>
  <path d="M92.8 118.9H86.4V125.3H92.8V118.9Z" fill="black"/>
  <path d="M92.8 125.3H86.4V131.7H92.8V125.3Z" fill="black"/>
  <path d="M92.8 131.7H86.4V138.1H92.8V131.7Z" fill="black"/>
  <path d="M92.8 138.1H86.4V144.5H92.8V138.1Z" fill="black"/>
  <path d="M92.8 150.9H86.4V157.3H92.8V150.9Z" fill="black"/>
  <path d="M92.8 163.7H86.4V170.1H92.8V163.7Z" fill="black"/>
  <path d="M92.8 176.5H86.4V182.9H92.8V176.5Z" fill="black"/>
  <path d="M99.2 3.70001H92.8V10.1H99.2V3.70001Z" fill="black"/>
  <path d="M99.2 16.5H92.8V22.9H99.2V16.5Z" fill="black"/>
  <path d="M99.2 22.9H92.8V29.3H99.2V22.9Z" fill="black"/>
  <path d="M99.2 42.1H92.8V48.5H99.2V42.1Z" fill="black"/>
  <path d="M99.2 48.5H92.8V54.9H99.2V48.5Z" fill="black"/>
  <path d="M99.2 54.9H92.8V61.3H99.2V54.9Z" fill="black"/>
  <path d="M99.2 61.3H92.8V67.7H99.2V61.3Z" fill="black"/>
  <path d="M99.2 80.5H92.8V86.9H99.2V80.5Z" fill="black"/>
  <path d="M99.2 106.1H92.8V112.5H99.2V106.1Z" fill="black"/>
  <path d="M99.2 131.7H92.8V138.1H99.2V131.7Z" fill="black"/>
  <path d="M99.2 138.1H92.8V144.5H99.2V138.1Z" fill="black"/>
  <path d="M99.2 144.5H92.8V150.9H99.2V144.5Z" fill="black"/>
  <path d="M99.2 182.9H92.8V189.3H99.2V182.9Z" fill="black"/>
  <path d="M105.6 10.1H99.2V16.5H105.6V10.1Z" fill="black"/>
  <path d="M105.6 54.9H99.2V61.3H105.6V54.9Z" fill="black"/>
  <path d="M105.6 67.7H99.2V74.1H105.6V67.7Z" fill="black"/>
  <path d="M105.6 74.1H99.2V80.5H105.6V74.1Z" fill="black"/>
  <path d="M105.6 86.9H99.2V93.3H105.6V86.9Z" fill="black"/>
  <path d="M105.6 125.3H99.2V131.7H105.6V125.3Z" fill="black"/>
  <path d="M105.6 131.7H99.2V138.1H105.6V131.7Z" fill="black"/>
  <path d="M105.6 144.5H99.2V150.9H105.6V144.5Z" fill="black"/>
  <path d="M105.6 150.9H99.2V157.3H105.6V150.9Z" fill="black"/>
  <path d="M112 10.1H105.6V16.5H112V10.1Z" fill="black"/>
  <path d="M112 16.5H105.6V22.9H112V16.5Z" fill="black"/>
  <path d="M112 22.9H105.6V29.3H112V22.9Z" fill="black"/>
  <path d="M112 35.7H105.6V42.1H112V35.7Z" fill="black"/>
  <path d="M112 42.1H105.6V48.5H112V42.1Z" fill="black"/>
  <path d="M112 61.3H105.6V67.7H112V61.3Z" fill="black"/>
  <path d="M112 67.7H105.6V74.1H112V67.7Z" fill="black"/>
  <path d="M112 74.1H105.6V80.5H112V74.1Z" fill="black"/>
  <path d="M112 93.3H105.6V99.7H112V93.3Z" fill="black"/>
  <path d="M112 99.7H105.6V106.1H112V99.7Z" fill="black"/>
  <path d="M112 106.1H105.6V112.5H112V106.1Z" fill="black"/>
  <path d="M112 150.9H105.6V157.3H112V150.9Z" fill="black"/>
  <path d="M112 176.5H105.6V182.9H112V176.5Z" fill="black"/>
  <path d="M112 182.9H105.6V189.3H112V182.9Z" fill="black"/>
  <path d="M118.4 10.1H112V16.5H118.4V10.1Z" fill="black"/>
  <path d="M118.4 29.3H112V35.7H118.4V29.3Z" fill="black"/>
  <path d="M118.4 35.7H112V42.1H118.4V35.7Z" fill="black"/>
  <path d="M118.4 61.3H112V67.7H118.4V61.3Z" fill="black"/>
  <path d="M118.4 86.9H112V93.3H118.4V86.9Z" fill="black"/>
  <path d="M118.4 99.7H112V106.1H118.4V99.7Z" fill="black"/>
  <path d="M118.4 131.7H112V138.1H118.4V131.7Z" fill="black"/>
  <path d="M118.4 144.5H112V150.9H118.4V144.5Z" fill="black"/>
  <path d="M118.4 163.7H112V170.1H118.4V163.7Z" fill="black"/>
  <path d="M118.4 176.5H112V182.9H118.4V176.5Z" fill="black"/>
  <path d="M118.4 182.9H112V189.3H118.4V182.9Z" fill="black"/>
  <path d="M124.8 3.70001H118.4V10.1H124.8V3.70001Z" fill="black"/>
  <path d="M124.8 22.9H118.4V29.3H124.8V22.9Z" fill="black"/>
  <path d="M124.8 29.3H118.4V35.7H124.8V29.3Z" fill="black"/>
  <path d="M124.8 42.1H118.4V48.5H124.8V42.1Z" fill="black"/>
  <path d="M124.8 54.9H118.4V61.3H124.8V54.9Z" fill="black"/>
  <path d="M124.8 61.3H118.4V67.7H124.8V61.3Z" fill="black"/>
  <path d="M124.8 74.1H118.4V80.5H124.8V74.1Z" fill="black"/>
  <path d="M124.8 86.9H118.4V93.3H124.8V86.9Z" fill="black"/>
  <path d="M124.8 93.3H118.4V99.7H124.8V93.3Z" fill="black"/>
  <path d="M124.8 112.5H118.4V118.9H124.8V112.5Z" fill="black"/>
  <path d="M124.8 118.9H118.4V125.3H124.8V118.9Z" fill="black"/>
  <path d="M124.8 138.1H118.4V144.5H124.8V138.1Z" fill="black"/>
  <path d="M124.8 157.3H118.4V163.7H124.8V157.3Z" fill="black"/>
  <path d="M124.8 163.7H118.4V170.1H124.8V163.7Z" fill="black"/>
  <path d="M124.8 170.1H118.4V176.5H124.8V170.1Z" fill="black"/>
  <path d="M124.8 176.5H118.4V182.9H124.8V176.5Z" fill="black"/>
  <path d="M124.8 182.9H118.4V189.3H124.8V182.9Z" fill="black"/>
  <path d="M131.2 29.3H124.8V35.7H131.2V29.3Z" fill="black"/>
  <path d="M131.2 54.9H124.8V61.3H131.2V54.9Z" fill="black"/>
  <path d="M131.2 86.9H124.8V93.3H131.2V86.9Z" fill="black"/>
  <path d="M131.2 99.7H124.8V106.1H131.2V99.7Z" fill="black"/>
  <path d="M131.2 106.1H124.8V112.5H131.2V106.1Z" fill="black"/>
  <path d="M131.2 112.5H124.8V118.9H131.2V112.5Z" fill="black"/>
  <path d="M131.2 125.3H124.8V131.7H131.2V125.3Z" fill="black"/>
  <path d="M131.2 131.7H124.8V138.1H131.2V131.7Z" fill="black"/>
  <path d="M131.2 163.7H124.8V170.1H131.2V163.7Z" fill="black"/>
  <path d="M131.2 176.5H124.8V182.9H131.2V176.5Z" fill="black"/>
  <path d="M137.6 3.70001H131.2V10.1H137.6V3.70001Z" fill="black"/>
  <path d="M137.6 42.1H131.2V48.5H137.6V42.1Z" fill="black"/>
  <path d="M137.6 54.9H131.2V61.3H137.6V54.9Z" fill="black"/>
  <path d="M137.6 80.5H131.2V86.9H137.6V80.5Z" fill="black"/>
  <path d="M137.6 93.3H131.2V99.7H137.6V93.3Z" fill="black"/>
  <path d="M137.6 106.1H131.2V112.5H137.6V106.1Z" fill="black"/>
  <path d="M137.6 118.9H131.2V125.3H137.6V118.9Z" fill="black"/>
  <path d="M137.6 131.7H131.2V138.1H137.6V131.7Z" fill="black"/>
  <path d="M137.6 138.1H131.2V144.5H137.6V138.1Z" fill="black"/>
  <path d="M137.6 144.5H131.2V150.9H137.6V144.5Z" fill="black"/>
  <path d="M137.6 150.9H131.2V157.3H137.6V150.9Z" fill="black"/>
  <path d="M137.6 157.3H131.2V163.7H137.6V157.3Z" fill="black"/>
  <path d="M137.6 170.1H131.2V176.5H137.6V170.1Z" fill="black"/>
  <path d="M144 54.9H137.6V61.3H144V54.9Z" fill="black"/>
  <path d="M144 67.7H137.6V74.1H144V67.7Z" fill="black"/>
  <path d="M144 74.1H137.6V80.5H144V74.1Z" fill="black"/>
  <path d="M144 86.9H137.6V93.3H144V86.9Z" fill="black"/>
  <path d="M144 106.1H137.6V112.5H144V106.1Z" fill="black"/>
  <path d="M144 112.5H137.6V118.9H144V112.5Z" fill="black"/>
  <path d="M144 125.3H137.6V131.7H144V125.3Z" fill="black"/>
  <path d="M144 131.7H137.6V138.1H144V131.7Z" fill="black"/>
  <path d="M144 157.3H137.6V163.7H144V157.3Z" fill="black"/>
  <path d="M144 176.5H137.6V182.9H144V176.5Z" fill="black"/>
  <path d="M144 182.9H137.6V189.3H144V182.9Z" fill="black"/>
  <path d="M150.4 54.9H144V61.3H150.4V54.9Z" fill="black"/>
  <path d="M150.4 61.3H144V67.7H150.4V61.3Z" fill="black"/>
  <path d="M150.4 86.9H144V93.3H150.4V86.9Z" fill="black"/>
  <path d="M150.4 106.1H144V112.5H150.4V106.1Z" fill="black"/>
  <path d="M150.4 118.9H144V125.3H150.4V118.9Z" fill="black"/>
  <path d="M150.4 131.7H144V138.1H150.4V131.7Z" fill="black"/>
  <path d="M150.4 144.5H144V150.9H150.4V144.5Z" fill="black"/>
  <path d="M150.4 157.3H144V163.7H150.4V157.3Z" fill="black"/>
  <path d="M150.4 163.7H144V170.1H150.4V163.7Z" fill="black"/>
  <path d="M150.4 170.1H144V176.5H150.4V170.1Z" fill="black"/>
  <path d="M150.4 176.5H144V182.9H150.4V176.5Z" fill="black"/>
  <path d="M156.8 54.9H150.4V61.3H156.8V54.9Z" fill="black"/>
  <path d="M156.8 67.7H150.4V74.1H156.8V67.7Z" fill="black"/>
  <path d="M156.8 80.5H150.4V86.9H156.8V80.5Z" fill="black"/>
  <path d="M156.8 93.3H150.4V99.7H156.8V93.3Z" fill="black"/>
  <path d="M156.8 118.9H150.4V125.3H156.8V118.9Z" fill="black"/>
  <path d="M156.8 131.7H150.4V138.1H156.8V131.7Z" fill="black"/>
  <path d="M156.8 157.3H150.4V163.7H156.8V157.3Z" fill="black"/>
  <path d="M156.8 170.1H150.4V176.5H156.8V170.1Z" fill="black"/>
  <path d="M156.8 182.9H150.4V189.3H156.8V182.9Z" fill="black"/>
  <path d="M163.2 74.1H156.8V80.5H163.2V74.1Z" fill="black"/>
  <path d="M163.2 93.3H156.8V99.7H163.2V93.3Z" fill="black"/>
  <path d="M163.2 106.1H156.8V112.5H163.2V106.1Z" fill="black"/>
  <path d="M163.2 118.9H156.8V125.3H163.2V118.9Z" fill="black"/>
  <path d="M163.2 131.7H156.8V138.1H163.2V131.7Z" fill="black"/>
  <path d="M163.2 138.1H156.8V144.5H163.2V138.1Z" fill="black"/>
  <path d="M163.2 144.5H156.8V150.9H163.2V144.5Z" fill="black"/>
  <path d="M163.2 150.9H156.8V157.3H163.2V150.9Z" fill="black"/>
  <path d="M163.2 157.3H156.8V163.7H163.2V157.3Z" fill="black"/>
  <path d="M163.2 163.7H156.8V170.1H163.2V163.7Z" fill="black"/>
  <path d="M163.2 176.5H156.8V182.9H163.2V176.5Z" fill="black"/>
  <path d="M169.6 54.9H163.2V61.3H169.6V54.9Z" fill="black"/>
  <path d="M169.6 61.3H163.2V67.7H169.6V61.3Z" fill="black"/>
  <path d="M169.6 67.7H163.2V74.1H169.6V67.7Z" fill="black"/>
  <path d="M169.6 74.1H163.2V80.5H169.6V74.1Z" fill="black"/>
  <path d="M169.6 99.7H163.2V106.1H169.6V99.7Z" fill="black"/>
  <path d="M169.6 118.9H163.2V125.3H169.6V118.9Z" fill="black"/>
  <path d="M169.6 125.3H163.2V131.7H169.6V125.3Z" fill="black"/>
  <path d="M169.6 131.7H163.2V138.1H169.6V131.7Z" fill="black"/>
  <path d="M169.6 138.1H163.2V144.5H169.6V138.1Z" fill="black"/>
  <path d="M169.6 144.5H163.2V150.9H169.6V144.5Z" fill="black"/>
  <path d="M169.6 157.3H163.2V163.7H169.6V157.3Z" fill="black"/>
  <path d="M169.6 182.9H163.2V189.3H169.6V182.9Z" fill="black"/>
  <path d="M176 61.3H169.6V67.7H176V61.3Z" fill="black"/>
  <path d="M176 67.7H169.6V74.1H176V67.7Z" fill="black"/>
  <path d="M176 74.1H169.6V80.5H176V74.1Z" fill="black"/>
  <path d="M176 80.5H169.6V86.9H176V80.5Z" fill="black"/>
  <path d="M176 86.9H169.6V93.3H176V86.9Z" fill="black"/>
  <path d="M176 93.3H169.6V99.7H176V93.3Z" fill="black"/>
  <path d="M176 99.7H169.6V106.1H176V99.7Z" fill="black"/>
  <path d="M176 106.1H169.6V112.5H176V106.1Z" fill="black"/>
  <path d="M176 125.3H169.6V131.7H176V125.3Z" fill="black"/>
  <path d="M176 131.7H169.6V138.1H176V131.7Z" fill="black"/>
  <path d="M176 157.3H169.6V163.7H176V157.3Z" fill="black"/>
  <path d="M176 170.1H169.6V176.5H176V170.1Z" fill="black"/>
  <path d="M176 182.9H169.6V189.3H176V182.9Z" fill="black"/>
  <path d="M182.4 54.9H176V61.3H182.4V54.9Z" fill="black"/>
  <path d="M182.4 61.3H176V67.7H182.4V61.3Z" fill="black"/>
  <path d="M182.4 67.7H176V74.1H182.4V67.7Z" fill="black"/>
  <path d="M182.4 74.1H176V80.5H182.4V74.1Z" fill="black"/>
  <path d="M182.4 86.9H176V93.3H182.4V86.9Z" fill="black"/>
  <path d="M182.4 93.3H176V99.7H182.4V93.3Z" fill="black"/>
  <path d="M182.4 106.1H176V112.5H182.4V106.1Z" fill="black"/>
  <path d="M182.4 112.5H176V118.9H182.4V112.5Z" fill="black"/>
  <path d="M182.4 138.1H176V144.5H182.4V138.1Z" fill="black"/>
  <path d="M182.4 144.5H176V150.9H182.4V144.5Z" fill="black"/>
  <path d="M182.4 150.9H176V157.3H182.4V150.9Z" fill="black"/>
  <path d="M182.4 163.7H176V170.1H182.4V163.7Z" fill="black"/>
  <path d="M182.4 176.5H176V182.9H182.4V176.5Z" fill="black"/>
  <path d="M188.8 61.3H182.4V67.7H188.8V61.3Z" fill="black"/>
  <path d="M188.8 67.7H182.4V74.1H188.8V67.7Z" fill="black"/>
  <path d="M188.8 74.1H182.4V80.5H188.8V74.1Z" fill="black"/>
  <path d="M188.8 86.9H182.4V93.3H188.8V86.9Z" fill="black"/>
  <path d="M188.8 99.7H182.4V106.1H188.8V99.7Z" fill="black"/>
  <path d="M188.8 112.5H182.4V118.9H188.8V112.5Z" fill="black"/>
  <path d="M188.8 131.7H182.4V138.1H188.8V131.7Z" fill="black"/>
  <path d="M188.8 138.1H182.4V144.5H188.8V138.1Z" fill="black"/>
  <path d="M188.8 157.3H182.4V163.7H188.8V157.3Z" fill="black"/>
  <path d="M188.8 176.5H182.4V182.9H188.8V176.5Z" fill="black"/>
  <path d="M9.6 3.70001H3.2V10.1H9.6V3.70001Z" fill="black"/>
  <path d="M9.6 10.1H3.2V16.5H9.6V10.1Z" fill="black"/>
  <path d="M9.6 16.5H3.2V22.9H9.6V16.5Z" fill="black"/>
  <path d="M9.6 22.9H3.2V29.3H9.6V22.9Z" fill="black"/>
  <path d="M9.6 29.3H3.2V35.7H9.6V29.3Z" fill="black"/>
  <path d="M9.6 35.7H3.2V42.1H9.6V35.7Z" fill="black"/>
  <path d="M9.6 42.1H3.2V48.5H9.6V42.1Z" fill="black"/>
  <path d="M16 3.70001H9.6V10.1H16V3.70001Z" fill="black"/>
  <path d="M16 42.1H9.6V48.5H16V42.1Z" fill="black"/>
  <path d="M22.4 3.70001H16V10.1H22.4V3.70001Z" fill="black"/>
  <path d="M22.4 42.1H16V48.5H22.4V42.1Z" fill="black"/>
  <path d="M28.8 3.70001H22.4V10.1H28.8V3.70001Z" fill="black"/>
  <path d="M28.8 42.1H22.4V48.5H28.8V42.1Z" fill="black"/>
  <path d="M35.2 3.70001H28.8V10.1H35.2V3.70001Z" fill="black"/>
  <path d="M35.2 42.1H28.8V48.5H35.2V42.1Z" fill="black"/>
  <path d="M41.6 3.70001H35.2V10.1H41.6V3.70001Z" fill="black"/>
  <path d="M41.6 42.1H35.2V48.5H41.6V42.1Z" fill="black"/>
  <path d="M48 3.70001H41.6V10.1H48V3.70001Z" fill="black"/>
  <path d="M48 10.1H41.6V16.5H48V10.1Z" fill="black"/>
  <path d="M48 16.5H41.6V22.9H48V16.5Z" fill="black"/>
  <path d="M48 22.9H41.6V29.3H48V22.9Z" fill="black"/>
  <path d="M48 29.3H41.6V35.7H48V29.3Z" fill="black"/>
  <path d="M48 35.7H41.6V42.1H48V35.7Z" fill="black"/>
  <path d="M48 42.1H41.6V48.5H48V42.1Z" fill="black"/>
  <path d="M22.4 16.5H16V22.9H22.4V16.5Z" fill="black"/>
  <path d="M22.4 22.9H16V29.3H22.4V22.9Z" fill="black"/>
  <path d="M22.4 29.3H16V35.7H22.4V29.3Z" fill="black"/>
  <path d="M28.8 16.5H22.4V22.9H28.8V16.5Z" fill="black"/>
  <path d="M28.8 22.9H22.4V29.3H28.8V22.9Z" fill="black"/>
  <path d="M28.8 29.3H22.4V35.7H28.8V29.3Z" fill="black"/>
  <path d="M35.2 16.5H28.8V22.9H35.2V16.5Z" fill="black"/>
  <path d="M35.2 22.9H28.8V29.3H35.2V22.9Z" fill="black"/>
  <path d="M35.2 29.3H28.8V35.7H35.2V29.3Z" fill="black"/>
  <path d="M150.4 3.70001H144V10.1H150.4V3.70001Z" fill="black"/>
  <path d="M150.4 10.1H144V16.5H150.4V10.1Z" fill="black"/>
  <path d="M150.4 16.5H144V22.9H150.4V16.5Z" fill="black"/>
  <path d="M150.4 22.9H144V29.3H150.4V22.9Z" fill="black"/>
  <path d="M150.4 29.3H144V35.7H150.4V29.3Z" fill="black"/>
  <path d="M150.4 35.7H144V42.1H150.4V35.7Z" fill="black"/>
  <path d="M150.4 42.1H144V48.5H150.4V42.1Z" fill="black"/>
  <path d="M156.8 3.70001H150.4V10.1H156.8V3.70001Z" fill="black"/>
  <path d="M156.8 42.1H150.4V48.5H156.8V42.1Z" fill="black"/>
  <path d="M163.2 3.70001H156.8V10.1H163.2V3.70001Z" fill="black"/>
  <path d="M163.2 42.1H156.8V48.5H163.2V42.1Z" fill="black"/>
  <path d="M169.6 3.70001H163.2V10.1H169.6V3.70001Z" fill="black"/>
  <path d="M169.6 42.1H163.2V48.5H169.6V42.1Z" fill="black"/>
  <path d="M176 3.70001H169.6V10.1H176V3.70001Z" fill="black"/>
  <path d="M176 42.1H169.6V48.5H176V42.1Z" fill="black"/>
  <path d="M182.4 3.70001H176V10.1H182.4V3.70001Z" fill="black"/>
  <path d="M182.4 42.1H176V48.5H182.4V42.1Z" fill="black"/>
  <path d="M188.8 3.70001H182.4V10.1H188.8V3.70001Z" fill="black"/>
  <path d="M188.8 10.1H182.4V16.5H188.8V10.1Z" fill="black"/>
  <path d="M188.8 16.5H182.4V22.9H188.8V16.5Z" fill="black"/>
  <path d="M188.8 22.9H182.4V29.3H188.8V22.9Z" fill="black"/>
  <path d="M188.8 29.3H182.4V35.7H188.8V29.3Z" fill="black"/>
  <path d="M188.8 35.7H182.4V42.1H188.8V35.7Z" fill="black"/>
  <path d="M188.8 42.1H182.4V48.5H188.8V42.1Z" fill="black"/>
  <path d="M163.2 16.5H156.8V22.9H163.2V16.5Z" fill="black"/>
  <path d="M163.2 22.9H156.8V29.3H163.2V22.9Z" fill="black"/>
  <path d="M163.2 29.3H156.8V35.7H163.2V29.3Z" fill="black"/>
  <path d="M169.6 16.5H163.2V22.9H169.6V16.5Z" fill="black"/>
  <path d="M169.6 22.9H163.2V29.3H169.6V22.9Z" fill="black"/>
  <path d="M169.6 29.3H163.2V35.7H169.6V29.3Z" fill="black"/>
  <path d="M176 16.5H169.6V22.9H176V16.5Z" fill="black"/>
  <path d="M176 22.9H169.6V29.3H176V22.9Z" fill="black"/>
  <path d="M176 29.3H169.6V35.7H176V29.3Z" fill="black"/>
  <path d="M9.6 144.5H3.2V150.9H9.6V144.5Z" fill="black"/>
  <path d="M9.6 150.9H3.2V157.3H9.6V150.9Z" fill="black"/>
  <path d="M9.6 157.3H3.2V163.7H9.6V157.3Z" fill="black"/>
  <path d="M9.6 163.7H3.2V170.1H9.6V163.7Z" fill="black"/>
  <path d="M9.6 170.1H3.2V176.5H9.6V170.1Z" fill="black"/>
  <path d="M9.6 176.5H3.2V182.9H9.6V176.5Z" fill="black"/>
  <path d="M9.6 182.9H3.2V189.3H9.6V182.9Z" fill="black"/>
  <path d="M16 144.5H9.6V150.9H16V144.5Z" fill="black"/>
  <path d="M16 182.9H9.6V189.3H16V182.9Z" fill="black"/>
  <path d="M22.4 144.5H16V150.9H22.4V144.5Z" fill="black"/>
  <path d="M22.4 182.9H16V189.3H22.4V182.9Z" fill="black"/>
  <path d="M28.8 144.5H22.4V150.9H28.8V144.5Z" fill="black"/>
  <path d="M28.8 182.9H22.4V189.3H28.8V182.9Z" fill="black"/>
  <path d="M35.2 144.5H28.8V150.9H35.2V144.5Z" fill="black"/>
  <path d="M35.2 182.9H28.8V189.3H35.2V182.9Z" fill="black"/>
  <path d="M41.6 144.5H35.2V150.9H41.6V144.5Z" fill="black"/>
  <path d="M41.6 182.9H35.2V189.3H41.6V182.9Z" fill="black"/>
  <path d="M48 144.5H41.6V150.9H48V144.5Z" fill="black"/>
  <path d="M48 150.9H41.6V157.3H48V150.9Z" fill="black"/>
  <path d="M48 157.3H41.6V163.7H48V157.3Z" fill="black"/>
  <path d="M48 163.7H41.6V170.1H48V163.7Z" fill="black"/>
  <path d="M48 170.1H41.6V176.5H48V170.1Z" fill="black"/>
  <path d="M48 176.5H41.6V182.9H48V176.5Z" fill="black"/>
  <path d="M48 182.9H41.6V189.3H48V182.9Z" fill="black"/>
  <path d="M22.4 157.3H16V163.7H22.4V157.3Z" fill="black"/>
  <path d="M22.4 163.7H16V170.1H22.4V163.7Z" fill="black"/>
  <path d="M22.4 170.1H16V176.5H22.4V170.1Z" fill="black"/>
  <path d="M28.8 157.3H22.4V163.7H28.8V157.3Z" fill="black"/>
  <path d="M28.8 163.7H22.4V170.1H28.8V163.7Z" fill="black"/>
  <path d="M28.8 170.1H22.4V176.5H28.8V170.1Z" fill="black"/>
  <path d="M35.2 157.3H28.8V163.7H35.2V157.3Z" fill="black"/>
  <path d="M35.2 163.7H28.8V170.1H35.2V163.7Z" fill="black"/>
  <path d="M35.2 170.1H28.8V176.5H35.2V170.1Z" fill="black"/>
</svg>